<svg xmlns="http://www.w3.org/2000/svg" xmlns:xlink="http://www.w3.org/1999/xlink" width="1920" height="703" viewBox="0 0 1920 703"><defs><style>.cls-1{fill:#bfefb4;}.cls-2{fill:#f91200;}.cls-3{fill:#d63c38;}.cls-4{fill:#ffe7b3;}.cls-5{fill:#ffba31;}.cls-6{fill:#00c9ff;}.cls-7{fill:#020202;}.cls-8{fill:#fff;}.cls-9{fill:#f40606;}.cls-10{fill:url(#Sky);}.cls-11{fill:url(#Sky-2);}.cls-12{fill:url(#Sky-3);}.cls-13{fill:url(#Sky-4);}.cls-14{fill:url(#Sky-5);}.cls-15{fill:url(#Sky-6);}.cls-16{fill:url(#Sky-7);}.cls-17{fill:url(#Sky-8);}.cls-18{fill:url(#Sky-9);}.cls-19{fill:url(#Sky-10);}.cls-20{fill:url(#Sky-11);}.cls-21{fill:url(#Sky-12);}.cls-22{fill:url(#Sky-13);}.cls-23{fill:url(#Sky-14);}.cls-24{fill:url(#Sky-15);}.cls-25{fill:#60f479;}</style><linearGradient id="Sky" x1="412.36" y1="476.02" x2="434.16" y2="476.02" gradientUnits="userSpaceOnUse"><stop offset="0" stop-color="#cce0f4"/><stop offset="0.06" stop-color="#c3dcf2"/><stop offset="0.17" stop-color="#a9d2ee"/><stop offset="0.31" stop-color="#80c2e7"/><stop offset="0.46" stop-color="#47acde"/><stop offset="0.57" stop-color="#1e9cd7"/><stop offset="0.87" stop-color="#0075be"/><stop offset="0.99" stop-color="#005b97"/></linearGradient><linearGradient id="Sky-2" x1="422.53" y1="485.82" x2="466.81" y2="485.82" xlink:href="#Sky"/><linearGradient id="Sky-3" x1="422.73" y1="519.32" x2="455.58" y2="519.32" xlink:href="#Sky"/><linearGradient id="Sky-4" x1="378.94" y1="487.92" x2="423.96" y2="487.92" xlink:href="#Sky"/><linearGradient id="Sky-5" x1="388.09" y1="518.25" x2="423.57" y2="518.25" xlink:href="#Sky"/><linearGradient id="Sky-6" x1="519.78" y1="468.81" x2="541.57" y2="468.81" xlink:href="#Sky"/><linearGradient id="Sky-7" x1="529.95" y1="478.62" x2="574.22" y2="478.62" xlink:href="#Sky"/><linearGradient id="Sky-8" x1="530.15" y1="512.11" x2="563" y2="512.11" xlink:href="#Sky"/><linearGradient id="Sky-9" x1="486.36" y1="480.72" x2="531.38" y2="480.72" xlink:href="#Sky"/><linearGradient id="Sky-10" x1="495.5" y1="511.04" x2="530.99" y2="511.04" xlink:href="#Sky"/><linearGradient id="Sky-11" x1="466.23" y1="387.81" x2="488.03" y2="387.81" xlink:href="#Sky"/><linearGradient id="Sky-12" x1="476.41" y1="397.61" x2="520.68" y2="397.61" xlink:href="#Sky"/><linearGradient id="Sky-13" x1="476.6" y1="431.11" x2="509.46" y2="431.11" xlink:href="#Sky"/><linearGradient id="Sky-14" x1="432.81" y1="399.71" x2="477.84" y2="399.71" xlink:href="#Sky"/><linearGradient id="Sky-15" x1="441.96" y1="430.04" x2="477.44" y2="430.04" xlink:href="#Sky"/></defs><g id="Baggrund"><rect class="cls-1" width="1920" height="703"/></g><g id="Layer_1" data-name="Layer 1"><path class="cls-2" d="M772.14,249.22q18.4,10.89,18.4,29.09a38.26,38.26,0,0,1-3.07,15.14,40.68,40.68,0,0,1-9.1,13.16,42.2,42.2,0,0,1-15.93,9.4,67.42,67.42,0,0,1-22.36,3.46H694.17q-12.07,0-17.32-6.13t-5.24-22V207.66A28.1,28.1,0,0,1,674,195.79a18.85,18.85,0,0,1,7.62-8.31,23.87,23.87,0,0,1,12.57-3.17h45.31q19.8.19,32.95,10.79t13.16,27.21a43.82,43.82,0,0,1-.89,9.4,25.85,25.85,0,0,1-2.67,7.22,25.46,25.46,0,0,1-4.15,5.54A44.62,44.62,0,0,1,772.14,249.22Zm-26.92-26.91q0-8.31-6.43-11.38t-21.47-3.07v30.28a67.16,67.16,0,0,0,15.14-1.39,19,19,0,0,0,9.3-4.85Q745.23,228.45,745.22,222.31Zm2.58,52.83q0-6.52-3.37-10.09T734.74,260a80.72,80.72,0,0,0-17.42-1.48v34.24q15.43,0,23-3.86T747.8,275.14Z"/><path class="cls-2" d="M810.72,197.77A13,13,0,0,1,816.36,187q5.64-4.24,15.93-4.25,21.57,0,21.57,15,0,8.31-5.44,11.67t-16.13,3.37q-9.3,0-15.43-3.56T810.72,197.77ZM853.67,298.5q0,11.87-4.95,16.52t-17.42,4.65q-11.67,0-15.93-5.44t-4.25-17.91V247.64q0-10.09,5.44-16.23t14.55-6.14q10.68,0,16.62,4.66T853.67,247Z"/><path class="cls-2" d="M918.18,223.89q18.41,0,30.67,7.52t12.27,16.42a6.62,6.62,0,0,1-2.18,4.75,7.46,7.46,0,0,1-5.54,2.18,13.14,13.14,0,0,1-6.53-2.08,70,70,0,0,1-6.73-4.45,34.72,34.72,0,0,0-8.31-4.35,30,30,0,0,0-10.88-2q-7.73,0-7.72,4.75,0,3.36,4,5.34a70.51,70.51,0,0,0,11.58,4.16,70.82,70.82,0,0,1,11.57,4.15q14.85,5.74,20.39,12.37t5.54,17.51a21.26,21.26,0,0,1-3,10.59,34.21,34.21,0,0,1-8.91,9.9q-5.92,4.65-16.13,7.52A86,86,0,0,1,915,321.06q-25.53,0-38.19-11.68-6.14-5.75-6.14-11.87a7.5,7.5,0,0,1,2.48-5.94q2.48-2.18,7-2.18T894,293.84q9.29,4.46,17.21,4.46,10.89,0,10.89-5.35c0-1.84-1.92-3.33-5.74-4.45s-8.84-2.47-15-4.06a50.86,50.86,0,0,1-14.84-5.93q-8.71-3.76-12.18-9.4a25.88,25.88,0,0,1-3.46-13.76q0-13.84,13.16-22.65T918.18,223.89Z"/><path class="cls-2" d="M988.83,277.32V254a19.6,19.6,0,0,1-7.92-1.68,9.38,9.38,0,0,1-4.25-3.86,12.32,12.32,0,0,1-1.29-5.94q0-11.28,13.66-12.27v-18.4q0-7.51,10.88-13.56a44.23,44.23,0,0,1,21.57-6q6.52,0,8.51,3.76t2,11.28l.2,22.75h5.34c7.25,0,12.24,1,14.94,2.87s4.06,5.38,4.06,10.39a11,11,0,0,1-1.19,5.35,7.81,7.81,0,0,1-3.86,3.36,23.5,23.5,0,0,1-6.43,1.68,73,73,0,0,1-9.3.5h-3.56v21.77a39.64,39.64,0,0,0,.29,5.24,11.16,11.16,0,0,0,.89,3.26A3,3,0,0,0,1035,286a7.92,7.92,0,0,0,2.67.39,5.23,5.23,0,0,0,4-1.68,13,13,0,0,0,2.47-3.76,13.89,13.89,0,0,1,2.37-3.76,4.51,4.51,0,0,1,3.47-1.68q4.55,0,7,2.18a6.84,6.84,0,0,1,2.48,5.34,36.06,36.06,0,0,1-2.08,11.48,48,48,0,0,1-6,11.87,30.43,30.43,0,0,1-11,9.5,32.79,32.79,0,0,1-15.73,3.76q-19.59,0-27.71-9.89T988.83,277.32Z"/><path class="cls-2" d="M1120.62,298.5q0,11.87-4.94,16.52t-17.62,4.65q-11.67,0-15.83-5.44t-4.15-17.91V247.64a27.46,27.46,0,0,1,2.37-11.78,17.69,17.69,0,0,1,6.93-7.81,20.09,20.09,0,0,1,10.68-2.78q15,0,19.79,8.71,11.48-8.7,22.17-8.71,20.77,0,20.77,19.79,0,7.92-4.55,12.87a15.36,15.36,0,0,1-11.87,4.94,12.48,12.48,0,0,1-7-1.78q-2.67-1.77-4.94-3.56a8.27,8.27,0,0,0-5.25-1.78,7.57,7.57,0,0,0-6.53,3Z"/><path class="cls-2" d="M1221.15,321.06a67.16,67.16,0,0,1-27.8-5.55,45.85,45.85,0,0,1-19.79-16.62q-7.43-11.08-7.42-25.92,0-22.56,15.43-35.82t39.58-13.26q24.15,0,39.38,13.26T1275.77,273q0,22.36-15.53,35.22T1221.15,321.06Zm10.29-48.29a58.16,58.16,0,0,0-2.57-18.11q-2.58-7.82-7.52-7.81-3.36,0-5.94,4a28.37,28.37,0,0,0-3.76,9.7,60.69,60.69,0,0,0-1.18,12.27,51.66,51.66,0,0,0,2.77,17.71q2.76,7.62,7.91,7.62t7.72-7.52A55.29,55.29,0,0,0,1231.44,272.77Z"/><path class="cls-2" d="M772.14,486.69q18.4,10.89,18.4,29.09a38.23,38.23,0,0,1-3.07,15.14,40.68,40.68,0,0,1-9.1,13.16,42.2,42.2,0,0,1-15.93,9.4,67.42,67.42,0,0,1-22.36,3.46H694.17q-12.07,0-17.32-6.13t-5.24-22V445.13A28.1,28.1,0,0,1,674,433.26,18.85,18.85,0,0,1,681.6,425a23.87,23.87,0,0,1,12.57-3.17h45.31q19.8.21,32.95,10.79t13.16,27.21a43.76,43.76,0,0,1-.89,9.4A25.85,25.85,0,0,1,782,476.4a25.46,25.46,0,0,1-4.15,5.54A43.81,43.81,0,0,1,772.14,486.69Zm-26.92-26.91q0-8.31-6.43-11.38t-21.47-3.07v30.28a67.16,67.16,0,0,0,15.14-1.39,19,19,0,0,0,9.3-4.84Q745.23,465.92,745.22,459.78Zm2.58,52.84q0-6.54-3.37-10.1t-9.69-5A80,80,0,0,0,717.32,496v34.24q15.43,0,23-3.86T747.8,512.62Z"/><path class="cls-2" d="M843.77,558.33q-15.63,0-25.92-12.77t-10.29-34.92q0-22.56,10.19-35.92t26-13.36q16,0,29.69,11.28,5.34-9.88,17.21-9.89,10.7,0,16.63,4.65t5.93,17.11V536q0,11.87-4.94,16.52t-17.42,4.65q-13.07,0-17.22-7.32Q861,558.33,843.77,558.33Zm26.92-66.69q-3.37-5.75-8.71-5.74-5.15,0-8.31,7.52a43.89,43.89,0,0,0-3.17,17.22,41.81,41.81,0,0,0,3,16.22q3,7.13,8.31,7.13,5.54,0,8.91-5.34Z"/><path class="cls-2" d="M975.57,470.86a46.55,46.55,0,0,1,28.3-9.7q15.43,0,25.72,13.06t10.29,33q0,24.15-15.63,37.7t-40.57,13.56q-15.24,0-26.62-4.36a38.65,38.65,0,0,1-17.81-13.06q-6.42-8.7-6.63-21l-.39-74.61q0-12.27,5.94-18T954,421.78q11.07,0,16.32,5.25t5.25,16.72Zm.2,56q3.56,6.74,9.89,6.73,5.34,0,8.31-6.73a37.82,37.82,0,0,0,3-15.43,54.89,54.89,0,0,0-.79-9.3,45.66,45.66,0,0,0-2.18-8.22,17.4,17.4,0,0,0-3.56-5.93,6.68,6.68,0,0,0-4.95-2.28c-4.09,0-7.32,2.45-9.69,7.32v33.84Z"/><path class="cls-2" d="M1099.65,515.39q0,11.28,8.7,11.28a8,8,0,0,0,5.25-1.88,11.69,11.69,0,0,0,3.46-5.25,23.14,23.14,0,0,0,1.19-7.72V485.31a27.46,27.46,0,0,1,2.37-11.78,17.83,17.83,0,0,1,6.93-7.82,20.19,20.19,0,0,1,10.69-2.77q10.68,0,16.62,4.65t5.93,17.12v51.46q0,12.06-4.94,16.62t-17.42,4.55a32.86,32.86,0,0,1-9.1-1.09,14.28,14.28,0,0,1-6-3.26,13.89,13.89,0,0,1-3.46-5.74,54.13,54.13,0,0,1-17.12,7.52,85.65,85.65,0,0,1-20.08,2.17q-14.06,0-20.19-11t-6.13-36.11q0-12.48.59-20.29a93.42,93.42,0,0,1,1.88-13.46q1.29-5.64,4-8.41a15.2,15.2,0,0,1,6.33-3.95,31.61,31.61,0,0,1,9.6-1.19q11.08,0,15.93,4.15t4.85,12.47Z"/><path class="cls-2" d="M1226.5,461.36q18.4,0,30.67,7.52t12.27,16.43a6.63,6.63,0,0,1-2.18,4.75,7.51,7.51,0,0,1-5.54,2.17,13.11,13.11,0,0,1-6.53-2.08,68.17,68.17,0,0,1-6.73-4.45,34.72,34.72,0,0,0-8.31-4.35,30,30,0,0,0-10.88-2q-7.73,0-7.72,4.75c0,2.24,1.32,4,4,5.34a70,70,0,0,0,11.57,4.16,71.6,71.6,0,0,1,11.58,4.15q14.83,5.75,20.38,12.37t5.54,17.52a21.34,21.34,0,0,1-3,10.58,34.21,34.21,0,0,1-8.91,9.9q-5.94,4.65-16.13,7.52a86,86,0,0,1-23.25,2.87q-25.53,0-38.19-11.68Q1179,541.12,1179,535a7.5,7.5,0,0,1,2.47-5.94q2.47-2.17,7-2.18t13.85,4.46q9.3,4.45,17.22,4.45,10.88,0,10.88-5.34c0-1.85-1.91-3.33-5.74-4.46s-8.83-2.47-15-4.05a51.37,51.37,0,0,1-14.84-5.94q-8.7-3.75-12.17-9.4a25.78,25.78,0,0,1-3.46-13.75q0-13.86,13.16-22.66T1226.5,461.36Z"/><path class="cls-2" d="M1353.15,504.11q0-11.28-8.71-11.28a9.86,9.86,0,0,0-2.87.39,13.38,13.38,0,0,0-2.37,1,6.77,6.77,0,0,0-2,1.68,14.51,14.51,0,0,0-1.59,2.38,10,10,0,0,0-1,3.07,25,25,0,0,0-.29,4v21.77q0,16.23-5.25,23.06t-15.93,6.82q-11.09,0-16.22-6.23t-5.15-22.06l-.4-84.31q0-12.27,5.94-18t15.83-5.73q10.49,0,15.83,4.35t5.35,17.61v28.7q14.64-8.91,35.62-8.91,9.49,0,15.24,4.85t8.51,15.34q2.76,10.48,2.77,27.5,0,8.71-.3,15t-.89,11.58a40.18,40.18,0,0,1-1.78,8.61,26.22,26.22,0,0,1-2.77,5.74,10.89,10.89,0,0,1-4.06,3.66,20.45,20.45,0,0,1-5.44,1.88,37.45,37.45,0,0,1-7.13.59q-11.08,0-15.93-4.06t-4.84-12.36Z"/><path class="cls-2" d="M1465.35,529h-7.12a34,34,0,0,1-5.94,19.2q-5.94,8.89-15.83,8.9-11.09,0-16.33-6.23t-5.24-22.07V447.51q0-8.5,2.77-13.76a16.44,16.44,0,0,1,7.22-7.42,30.53,30.53,0,0,1,11.58-2.57q12.27,0,16.42,8.21t4.16,28.4a187.24,187.24,0,0,1-1.78,27.51q1.38,4.35,8.9,4.35,4.75,0,6.43-2.08c1.12-1.38,1.69-4.18,1.69-8.41q0-9.3,4.84-13.45t16.53-4.16q12.27,0,16.52,4.45t4.26,16.13q0,12.27-7.32,19a23.68,23.68,0,0,1-16.43,6.73,26.14,26.14,0,0,1,16.53,5.64q7.21,5.64,7.22,16.92,0,15-4.06,19.59t-16.72,4.55q-11.69,0-16.53-4.25t-4.84-13.36a22.41,22.41,0,0,0-.79-6.83,5.17,5.17,0,0,0-2.08-3A9,9,0,0,0,1465.35,529Z"/><path class="cls-2" d="M1565.48,558.33q-15.63,0-25.92-12.77t-10.29-34.92q0-22.56,10.19-35.92t26-13.36q16,0,29.69,11.28,5.34-9.88,17.21-9.89,10.69,0,16.63,4.65t5.93,17.11V536q0,11.87-4.94,16.52t-17.42,4.65q-13,0-17.21-7.32Q1582.7,558.33,1565.48,558.33Zm26.92-66.69q-3.37-5.75-8.71-5.74-5.14,0-8.31,7.52a44.07,44.07,0,0,0-3.17,17.22,41.81,41.81,0,0,0,3,16.22q3,7.13,8.31,7.13,5.54,0,8.91-5.34Z"/><path class="cls-3" d="M593.18,543.79c-24.72,32.19-71,52.63-116,52.17-50-.51-96.6-26.73-120.14-60.41-71.42-102.19,38.38-317.87,120.82-317.16C562.1,219.13,668.1,446.26,593.18,543.79Z"/><path class="cls-3" d="M525.63,135.45c60.51,29.79,108.37,222,49.92,311.91-32.84,50.54-86.94,49.89-101.45,49.72-15.4-.18-64.48-.77-96.62-47.46-59.49-86.47-22-274.47,37-309.65,14.56-8.68,39.29-13.34,59.58-13.56C491,126.23,512.58,129,525.63,135.45Z"/><path d="M592.23,555.35c-24.73,24.91-71,40.73-116,40.37-50-.39-96.6-20.68-120.13-46.75-71.42-79.09,38.38-246,120.82-245.45C561.14,304.09,667.15,479.87,592.23,555.35Z"/><ellipse class="cls-4" cx="474.42" cy="223.2" rx="88.56" ry="74.83"/><path class="cls-5" d="M443.48,204.65c-16.61,20.88-39.1,49.16-50.78,44.16s-12.86-43.08,4.54-69.21c21.54-32.37,69.43-43,77.5-32.22C481.66,156.64,460.46,183.3,443.48,204.65Z"/><path class="cls-5" d="M507.33,205.23c16.61,20.88,39.1,49.16,50.78,44.16s12.86-43.08-4.54-69.21c-21.54-32.37-69.43-43-77.5-32.22C469.15,157.22,490.35,183.87,507.33,205.23Z"/><ellipse cx="506" cy="228" rx="19.91" ry="17.85"/><ellipse class="cls-6" cx="506" cy="228" rx="17.16" ry="15.39"/><path class="cls-7" d="M521.83,220.8a31.12,31.12,0,0,0,22-10"/><path class="cls-7" d="M521.68,219.43A24.42,24.42,0,0,0,536.81,208"/><path class="cls-7" d="M519.77,219a19.93,19.93,0,0,0,10-11.84"/><ellipse cx="441.43" cy="228.54" rx="19.91" ry="17.85"/><ellipse class="cls-6" cx="441.43" cy="228.54" rx="17.16" ry="15.39"/><path class="cls-7" d="M425.6,221.33a31.12,31.12,0,0,1-22-10"/><path class="cls-7" d="M425.75,220a24.46,24.46,0,0,1-15.13-11.42"/><path class="cls-7" d="M427.65,219.49a20.13,20.13,0,0,1-6.68-5.56,19.77,19.77,0,0,1-3.26-6.28"/><circle cx="441.47" cy="225.95" r="14.42"/><circle cx="506" cy="225.95" r="14.42"/><circle class="cls-8" cx="434.61" cy="234.18" r="4.81"/><circle class="cls-8" cx="441.47" cy="227.32" r="2.06"/><circle class="cls-8" cx="499.14" cy="234.18" r="4.81"/><circle class="cls-8" cx="506" cy="227.32" r="2.06"/><ellipse class="cls-9" cx="471" cy="268.54" rx="6.86" ry="8.96" transform="translate(-67.86 208.61) rotate(-23.34)"/><ellipse class="cls-9" cx="473.74" cy="273.27" rx="6.86" ry="4.27"/><ellipse class="cls-9" cx="476.75" cy="268.42" rx="8.96" ry="6.86" transform="translate(41.39 599.79) rotate(-66.66)"/><path class="cls-10" d="M433.51,473c-1.47,6.45-4.29,6.38-7.3,15.26-2.36,7-2.27,11.94-3.31,11.95s-1-5.7-4-13.94c-2.85-7.93-4.76-7.7-6-13.27-.14-.65-2.65-12.84,4-18.58a9.83,9.83,0,0,1,6.3-2.65,9.41,9.41,0,0,1,5.64,2C433.91,457.54,435.07,466.24,433.51,473Z"/><path class="cls-11" d="M451.62,496.27c-6.41,1.63-7.63-.91-16.91.45-7.3,1.08-11.66,3.41-12.14,2.49s4.61-3.51,10.59-9.89c5.76-6.15,4.69-7.74,9.1-11.36.52-.43,10.22-8.22,18.35-4.92a9.91,9.91,0,0,1,5.24,4.41,9.47,9.47,0,0,1,.79,5.93C465.6,489.57,458.38,494.56,451.62,496.27Z"/><path class="cls-12" d="M430.9,527.14c-2.73-6-.45-7.67-3.44-16.56-2.35-7-5.42-10.88-4.59-11.51s4.26,3.91,11.6,8.67c7.07,4.58,8.45,3.24,12.79,6.94.52.44,9.9,8.61,8.09,17.19a9.84,9.84,0,0,1-3.4,5.93,9.46,9.46,0,0,1-5.7,1.84C440,539.71,433.78,533.49,430.9,527.14Z"/><path class="cls-13" d="M403.17,479.93c5.34,3.91,4.15,6.47,11.12,12.75,5.48,4.95,10.06,6.82,9.65,7.78s-5.64-1.32-14.37-1.87c-8.41-.52-8.95,1.32-14.55.23-.66-.13-12.85-2.65-15.48-11a9.86,9.86,0,0,1,.06-6.84,9.47,9.47,0,0,1,4.06-4.39C389.1,473.43,397.55,475.81,403.17,479.93Z"/><path class="cls-14" d="M397.52,512.55c5.36-3.87,7.43-2,15.56-6.65,6.39-3.69,9.59-7.46,10.37-6.78s-3,5-6.21,13.1c-3.09,7.83-1.51,8.92-4.27,13.91-.33.58-6.49,11.4-15.26,11.32a9.86,9.86,0,0,1-6.49-2.17,9.38,9.38,0,0,1-2.92-5.22C387,523.92,391.87,516.62,397.52,512.55Z"/><path class="cls-15" d="M540.93,465.83c-1.47,6.45-4.29,6.38-7.3,15.26-2.37,7-2.27,11.93-3.32,11.94s-1-5.7-4-13.93c-2.85-7.93-4.75-7.7-6-13.27-.14-.66-2.66-12.85,4-18.58a9.94,9.94,0,0,1,6.31-2.66,9.51,9.51,0,0,1,5.64,2C541.33,450.34,542.48,459,540.93,465.83Z"/><path class="cls-16" d="M559,489.07c-6.41,1.62-7.63-.92-16.91.45-7.31,1.07-11.66,3.4-12.14,2.48s4.61-3.5,10.59-9.89c5.76-6.14,4.69-7.74,9.1-11.36.52-.42,10.22-8.21,18.35-4.91a9.82,9.82,0,0,1,5.23,4.4,9.43,9.43,0,0,1,.8,5.93C573,482.37,565.8,487.36,559,489.07Z"/><path class="cls-17" d="M538.32,519.94c-2.74-6-.45-7.68-3.44-16.57-2.36-7-5.42-10.87-4.6-11.51s4.27,3.92,11.61,8.67c7.07,4.59,8.45,3.25,12.79,7,.51.43,9.9,8.6,8.09,17.19a9.89,9.89,0,0,1-3.41,5.93,9.39,9.39,0,0,1-5.69,1.83C547.38,532.5,541.2,526.28,538.32,519.94Z"/><path class="cls-18" d="M510.59,472.73c5.33,3.91,4.15,6.47,11.12,12.74,5.48,4.95,10,6.83,9.65,7.78s-5.64-1.32-14.37-1.86c-8.41-.53-9,1.32-14.55.22-.66-.13-12.85-2.65-15.49-11a9.93,9.93,0,0,1,.07-6.84,9.36,9.36,0,0,1,4.06-4.39C496.52,466.22,505,468.61,510.59,472.73Z"/><path class="cls-19" d="M504.94,505.34c5.36-3.87,7.43-2,15.55-6.64,6.4-3.69,9.59-7.46,10.38-6.78s-3,4.95-6.21,13.09c-3.09,7.84-1.51,8.92-4.28,13.91-.32.59-6.48,11.4-15.25,11.33a9.91,9.91,0,0,1-6.49-2.17,9.41,9.41,0,0,1-2.92-5.22C494.41,516.71,499.29,509.42,504.94,505.34Z"/><path class="cls-20" d="M487.39,384.82c-1.48,6.45-4.3,6.38-7.3,15.26-2.37,7-2.28,11.94-3.32,11.95s-1-5.7-4-13.94c-2.85-7.93-4.76-7.7-6-13.27-.15-.65-2.66-12.84,4-18.58a9.83,9.83,0,0,1,6.3-2.65,9.38,9.38,0,0,1,5.64,2C487.78,369.33,488.94,378,487.39,384.82Z"/><path class="cls-21" d="M505.5,408.06c-6.42,1.63-7.64-.91-16.91.45-7.31,1.08-11.67,3.41-12.15,2.49s4.61-3.51,10.59-9.89c5.77-6.15,4.69-7.74,9.1-11.36.52-.43,10.23-8.22,18.36-4.92a9.94,9.94,0,0,1,5.23,4.41,9.4,9.4,0,0,1,.79,5.93C519.47,401.36,512.25,406.35,505.5,408.06Z"/><path class="cls-22" d="M484.77,438.93c-2.73-6-.45-7.67-3.44-16.56-2.35-7-5.42-10.88-4.59-11.51s4.26,3.91,11.61,8.67c7.07,4.58,8.44,3.24,12.79,6.94.51.44,9.89,8.61,8.08,17.19a9.78,9.78,0,0,1-3.4,5.93,9.46,9.46,0,0,1-5.7,1.84C493.84,451.5,487.65,445.28,484.77,438.93Z"/><path class="cls-23" d="M457,391.72c5.34,3.91,4.16,6.47,11.12,12.75,5.49,4.95,10.06,6.82,9.65,7.78s-5.64-1.32-14.37-1.87c-8.41-.52-8.95,1.32-14.55.23-.66-.13-12.85-2.65-15.48-11a9.86,9.86,0,0,1,.06-6.84,9.47,9.47,0,0,1,4.06-4.39C443,385.22,451.42,387.6,457,391.72Z"/><path class="cls-24" d="M451.39,424.34c5.37-3.87,7.44-2,15.56-6.65,6.4-3.69,9.59-7.46,10.38-6.78s-3,5-6.21,13.1c-3.1,7.83-1.51,8.92-4.28,13.91-.33.58-6.48,11.4-15.26,11.32a9.83,9.83,0,0,1-6.48-2.17,9.48,9.48,0,0,1-2.93-5.22C440.86,435.71,445.74,428.41,451.39,424.34Z"/><path class="cls-25" d="M417.43,406.78c8.19-.09,13.35,10.88,20.3,21.65,20.38,31.59,43,41.2,40.12,45.89-3,5-23.88-13-60.78-13.65-12.39-.22-23.78,1.57-27.68-4.86-2.9-4.79-1.26-13.47,3.35-18.08,4.36-4.36,9-2.71,11.44-7,2.59-4.56-1.76-8.22.21-14.12C406.18,411.27,412.28,406.83,417.43,406.78Z"/><path class="cls-25" d="M562.05,440.51c-2.69,7.72-14.76,8.87-27.24,11.76-36.63,8.47-53.33,26.5-56.77,22.2-3.64-4.54,20.33-18.06,33.43-52.56,4.4-11.58,6.57-22.9,13.95-24.4,5.49-1.11,13.1,3.38,15.87,9.28,2.63,5.58-.5,9.4,2.68,13.12,3.41,4,8.33,1.13,13.22,5C561.64,428.39,563.75,435.64,562.05,440.51Z"/><path class="cls-25" d="M449.62,560.45c-4.18-7,2.71-17,8.54-28.42,17.09-33.48,14-57.87,19.55-57.74,5.82.14.73,27.19,18.7,59.42,6,10.83,13.3,19.78,9.69,26.38-2.68,4.92-11,7.85-17.31,6.18-6-1.58-6.87-6.44-11.77-6.39-5.24,0-6.22,5.64-12.31,6.9C459.16,567.93,452.26,564.89,449.62,560.45Z"/><path class="cls-25" d="M604.89,481.75c1.62-2.77,2.89-2.8,5.59-5.67,4.51-4.8,5.44-9.47,6.21-9.22s-1,4.56-.56,11.59c.22,3.91.86,4.53.38,7.07-.17.87-1.13,5.88-5.25,7.93-.76.37-2.92,1.45-5,.52s-2.68-3.27-2.92-4.16C602.38,486.18,604.2,482.93,604.89,481.75Z"/><path class="cls-25" d="M593.05,466.07c4-.45,5,.8,9.88,1.37,8.19.94,13.57-1.63,13.9-.67s-5.3,2.46-12.05,8.11c-3.76,3.15-3.91,4.26-6.83,5.67-1,.48-6.75,3.27-11.88.66-.94-.48-3.64-1.85-4.25-4.62s1.26-5.14,2-6C586.72,466.85,591.35,466.26,593.05,466.07Z"/><path class="cls-25" d="M606.19,451.69c2.16,2.38,1.81,3.6,3.73,7,3.21,5.74,7.39,8,6.92,8.69s-4.06-2.28-10.88-4c-3.79-1-4.59-.55-6.86-1.78-.77-.41-5.27-2.84-6-7.39-.13-.83-.5-3.22,1-4.91s3.92-1.58,4.85-1.54C602.73,448,605.27,450.68,606.19,451.69Z"/><path class="cls-25" d="M586.92,428.21c1.61-2.77,2.89-2.8,5.59-5.67,4.5-4.79,5.43-9.47,6.2-9.22s-1,4.57-.55,11.59c.22,3.91.86,4.54.37,7.08-.16.86-1.13,5.87-5.25,7.92-.75.37-2.92,1.45-5,.52s-2.69-3.26-2.93-4.16C584.4,432.64,586.23,429.4,586.92,428.21Z"/><path class="cls-25" d="M575.08,412.53c4-.45,5,.8,9.88,1.37,8.18.94,13.57-1.62,13.9-.66s-5.3,2.45-12.06,8.11c-3.76,3.14-3.91,4.26-6.82,5.67-1,.47-6.75,3.26-11.89.65-.94-.48-3.64-1.85-4.25-4.62s1.27-5.14,2-6.05C568.75,413.32,573.38,412.72,575.08,412.53Z"/><path class="cls-25" d="M588.22,398.16c2.16,2.37,1.8,3.59,3.73,7,3.21,5.74,7.39,8,6.92,8.7s-4.07-2.29-10.88-4c-3.8-1-4.59-.55-6.87-1.78-.77-.41-5.26-2.84-6-7.39-.13-.83-.5-3.22,1-4.91s3.92-1.58,4.85-1.54C584.75,394.42,587.3,397.14,588.22,398.16Z"/><path class="cls-25" d="M485.87,316.86c-2.36-2.17-2.11-3.42-4.34-6.67-3.71-5.44-8.07-7.35-7.67-8.05s4.26,1.92,11.2,3c3.87.62,4.62.13,7,1.15.81.35,5.5,2.37,6.61,6.83.21.82.79,3.17-.56,5s-3.76,1.92-4.69,2C489.66,320.27,486.88,317.79,485.87,316.86Z"/><path class="cls-25" d="M468,325.06c.42-4,1.86-4.69,3.46-9.36,2.68-7.79,1.33-13.6,2.34-13.71s1.26,5.7,5.33,13.51c2.27,4.35,3.32,4.74,4.07,7.89.26,1.07,1.74,7.29-1.91,11.74-.67.82-2.59,3.16-5.42,3.16s-4.75-2.34-5.49-3.24C467.42,331.41,467.84,326.76,468,325.06Z"/><path class="cls-25" d="M456.8,309.13c2.78-1.59,3.9-1,7.67-2.12,6.3-1.91,9.44-5.5,10-4.9s-3.1,3.48-6.26,9.77c-1.76,3.5-1.52,4.36-3.21,6.32-.57.66-3.91,4.53-8.5,4.25-.84-.06-3.26-.2-4.58-2s-.7-4.17-.46-5.07C452.41,311.72,455.61,309.82,456.8,309.13Z"/><path class="cls-25" d="M549.36,357.58c-.52-3.17.45-4,.7-7.94.43-6.56-1.84-10.76-1.08-11.06s2.17,4.13,6.95,9.29c2.66,2.88,3.55,2.95,4.79,5.22.42.77,2.87,5.25,1,9.45-.34.77-1.33,3-3.51,3.58s-4.15-.81-4.91-1.35C550.24,362.6,549.59,358.93,549.36,357.58Z"/><path class="cls-25" d="M530.25,353c2.79-2.89,4.35-2.55,8.49-5.23,6.91-4.49,9.43-9.9,10.29-9.36s-2.52,5.26-4.13,13.92c-.89,4.82-.3,5.78-1.65,8.72-.46,1-3.13,6.81-8.75,8.07-1,.24-4,.9-6.22-.85s-2.29-4.77-2.32-5.93C525.87,357.66,529.06,354.25,530.25,353Z"/><path class="cls-25" d="M531.23,333.57c3.18.46,3.68,1.63,7.36,3.05,6.13,2.39,10.81,1.49,10.87,2.3s-4.59.83-11,3.83c-3.54,1.67-3.89,2.5-6.42,3-.86.17-5.87,1.16-9.32-1.89-.63-.56-2.44-2.17-2.35-4.43s2-3.71,2.76-4.27C526.18,332.9,529.88,333.38,531.23,333.57Z"/><path class="cls-25" d="M345.71,484.79c-1.62-2.77-2.89-2.8-5.59-5.67-4.51-4.79-5.43-9.47-6.21-9.22s1,4.57.56,11.59c-.22,3.91-.86,4.54-.37,7.08.16.86,1.12,5.87,5.24,7.92.76.37,2.92,1.45,5,.52s2.69-3.26,2.93-4.16C348.23,489.22,346.4,486,345.71,484.79Z"/><path class="cls-25" d="M357.55,469.11c-4-.45-5,.8-9.88,1.37-8.19.94-13.57-1.62-13.9-.66s5.3,2.45,12.05,8.11c3.76,3.14,3.92,4.26,6.83,5.67,1,.47,6.75,3.26,11.89.65.93-.48,3.64-1.85,4.25-4.62s-1.27-5.14-2-6.05C363.88,469.9,359.25,469.3,357.55,469.11Z"/><path class="cls-25" d="M344.41,454.74c-2.16,2.37-1.8,3.59-3.73,7-3.21,5.75-7.39,8-6.92,8.7s4.06-2.29,10.88-4c3.79-1,4.59-.55,6.86-1.78.77-.41,5.27-2.84,6-7.39.13-.83.5-3.22-1-4.91s-3.92-1.58-4.85-1.53C347.88,451,345.33,453.72,344.41,454.74Z"/><path class="cls-25" d="M362.31,429.88c-1.62-2.77-2.89-2.8-5.59-5.67-4.51-4.8-5.43-9.47-6.2-9.22s1,4.56.55,11.59c-.22,3.91-.86,4.53-.37,7.07.16.87,1.13,5.88,5.25,7.93.75.37,2.92,1.45,5,.52s2.69-3.26,2.93-4.16C364.83,434.31,363,431.06,362.31,429.88Z"/><path class="cls-25" d="M374.15,414.2c-4-.45-5,.8-9.88,1.37-8.18.94-13.57-1.63-13.9-.67s5.3,2.46,12.06,8.11c3.76,3.15,3.91,4.26,6.82,5.67,1,.48,6.75,3.27,11.89.66.94-.48,3.64-1.85,4.25-4.62s-1.27-5.14-2-6.05C380.48,415,375.85,414.39,374.15,414.2Z"/><path class="cls-25" d="M361,399.83c-2.16,2.37-1.8,3.59-3.73,7-3.21,5.74-7.39,8-6.92,8.69s4.07-2.28,10.88-4c3.8-1,4.59-.55,6.86-1.78.78-.41,5.27-2.84,6-7.39.13-.83.5-3.22-1-4.91s-3.93-1.58-4.85-1.54C364.48,396.09,361.93,398.81,361,399.83Z"/><path class="cls-25" d="M401.24,360.62c.52-3.17-.45-4-.7-7.94-.42-6.56,1.84-10.76,1.08-11.05s-2.17,4.12-6.95,9.29c-2.65,2.87-3.55,2.94-4.79,5.21-.42.77-2.87,5.25-1,9.46.35.76,1.33,3,3.52,3.57s4.14-.8,4.9-1.34C400.36,365.64,401,362,401.24,360.62Z"/><path class="cls-25" d="M420.35,356.06c-2.79-2.89-4.34-2.54-8.49-5.23-6.91-4.49-9.43-9.89-10.29-9.36s2.52,5.27,4.13,13.93c.9,4.82.3,5.77,1.65,8.72.46,1,3.13,6.81,8.75,8.07,1,.23,4,.89,6.22-.86s2.29-4.77,2.32-5.93C424.74,360.7,421.54,357.3,420.35,356.06Z"/><path class="cls-25" d="M419.37,336.61c-3.18.46-3.68,1.63-7.35,3.06-6.14,2.38-10.82,1.48-10.88,2.29s4.59.83,10.95,3.83c3.54,1.67,3.89,2.5,6.42,3,.87.17,5.88,1.16,9.32-1.89.63-.56,2.44-2.17,2.35-4.43s-2-3.71-2.76-4.27C424.42,335.94,420.73,336.42,419.37,336.61Z"/><circle class="cls-3" cx="476.48" cy="469.65" r="15.1"/><path class="cls-25" d="M578.2,545.39c3.21.05,3.86,1.15,7.68,2.1,6.39,1.59,10.92.12,11.08.91s-4.45,1.4-10.39,5.18c-3.3,2.1-3.53,3-6,3.78-.83.28-5.67,1.89-9.47-.7-.7-.48-2.7-1.84-2.89-4.1s1.53-3.94,2.2-4.58C573.1,545.36,576.83,545.37,578.2,545.39Z"/><path class="cls-25" d="M586.1,527.4c2.34,3.26,1.73,4.73,3.63,9.28,3.18,7.6,8,11.05,7.37,11.8s-4.73-3.42-13-6.55c-4.58-1.74-5.62-1.33-8.28-3.18-.9-.63-6.14-4.29-6.38-10,0-1.05-.16-4.08,1.95-6s5.11-1.4,6.26-1.22C582.32,522.25,585.09,526,586.1,527.4Z"/><path class="cls-25" d="M605.06,531.83c-1,3-2.26,3.33-4.32,6.7-3.44,5.61-3.4,10.37-4.2,10.28s0-4.66-1.81-11.46c-1-3.78-1.77-4.26-1.81-6.85,0-.88-.09-6,3.53-8.82.66-.52,2.56-2,4.77-1.53s3.3,2.65,3.72,3.48C606.62,527,605.49,530.54,605.06,531.83Z"/><path class="cls-25" d="M512.45,578.57c3,1.23,3.16,2.49,6.37,4.79,5.35,3.83,10.1,4.13,10,4.93s-4.65-.34-11.56,1c-3.85.74-4.39,1.46-7,1.31-.87-.05-6-.34-8.55-4.15-.47-.7-1.82-2.71-1.17-4.87s2.88-3.1,3.73-3.46C507.73,576.66,511.19,578,512.45,578.57Z"/><path class="cls-25" d="M526.43,564.76c1,3.9-.14,5,0,10,.15,8.24,3.41,13.24,2.5,13.69s-3.14-4.93-9.63-10.88c-3.62-3.31-4.75-3.31-6.53-6-.6-.92-4.13-6.26-2.22-11.69.35-1,1.35-3.86,4-4.83s5.26.58,6.26,1.17C524.81,558.58,526,563.09,526.43,564.76Z"/><path class="cls-25" d="M542.42,575.88c-2.07,2.45-3.33,2.26-6.48,4.62-5.27,4-7,8.39-7.7,8s1.72-4.34,2.54-11.32c.45-3.89-.07-4.62.85-7,.31-.82,2.12-5.59,6.53-6.9.81-.24,3.13-.93,5,.35s2.09,3.67,2.17,4.6C545.66,572,543.3,574.83,542.42,575.88Z"/><path class="cls-25" d="M413.6,565.46c.93,3.08.08,4,.34,8,.44,6.56,3.23,10.43,2.52,10.82s-2.69-3.81-8.1-8.3c-3-2.5-3.91-2.46-5.43-4.55-.52-.71-3.54-4.83-2.23-9.24.24-.81.93-3.13,3-4s4.22.25,5,.69C412.07,560.6,413.2,564.15,413.6,565.46Z"/><path class="cls-25" d="M433.15,567.48c-2.4,3.24-4,3.1-7.74,6.3-6.26,5.35-8.06,11-9,10.62s1.81-5.55,2.28-14.34c.26-4.9-.46-5.77.5-8.86.32-1.05,2.21-7.16,7.62-9.15,1-.36,3.83-1.4,6.27,0s2.9,4.43,3.08,5.58C436.89,562.31,434.17,566.11,433.15,567.48Z"/><path class="cls-25" d="M434.71,586.9c-3.21,0-3.86-1.14-7.69-2.07-6.39-1.56-10.91-.07-11.08-.86s4.44-1.42,10.36-5.23c3.29-2.11,3.52-3,6-3.81.83-.28,5.67-1.91,9.48.67.7.47,2.7,1.82,2.91,4.08s-1.51,3.94-2.18,4.59C439.81,586.9,436.08,586.91,434.71,586.9Z"/><path class="cls-25" d="M357.59,526.2c-.2,3.2-1.32,3.79-2.45,7.57-1.89,6.31-.63,10.9-1.43,11s-1.19-4.51-4.69-10.61c-1.94-3.39-2.8-3.67-3.5-6.16-.24-.84-1.62-5.76,1.15-9.43.5-.68,2-2.61,4.22-2.7s3.86,1.71,4.48,2.41C357.86,521.11,357.68,524.83,357.59,526.2Z"/><path class="cls-25" d="M375.2,534.92c-3.37,2.19-4.81,1.51-9.45,3.2-7.74,2.82-11.4,7.52-12.13,6.81s3.64-4.57,7.15-12.65c2-4.49,1.59-5.56,3.57-8.12.67-.87,4.57-5.94,10.33-5.91,1.05,0,4.08,0,5.87,2.23s1.17,5.16.93,6.3C380.51,531.38,376.64,534,375.2,534.92Z"/><path class="cls-25" d="M369.89,553.65c-3-1.15-3.23-2.41-6.49-4.62-5.44-3.7-10.2-3.87-10.08-4.67s4.66.22,11.53-1.28c3.83-.84,4.35-1.57,6.93-1.49.88,0,6,.19,8.65,3.94.49.68,1.9,2.65,1.3,4.83s-2.8,3.17-3.64,3.55C374.66,555.44,371.16,554.15,369.89,553.65Z"/></g></svg>